# xmcd
#
# Track frame offsets: 
#        150
#        13985
#        27796
#        37741
#        52634
#        68677
#        84548
#        113135
#        131741
#        151380
#        175650
#        199647
#        216756
#        232879
#        251170
#        267989
#        285348
#
# Disc length: 3999 seconds
#
# Revision: 1
# Processed by: cddbd v1.5.2PL0 Copyright (c) Steve Scherf et al.
# Submitted via: ExactAudioCopy v0.99pb5
#
DISCID=da0f9d11
DTITLE=Various Artist - Poetes and chansons. Gaston Coute
DYEAR=2002
DGENRE=Chanson
TTITLE0=Marc Robine - L'amour Anarchiste 
TTITLE1=Gerrad Pierron - Petit Poucet
TTITLE2=Gerrad Pierron - Les Cailloux 
TTITLE3=Marc Robine - Sur La Grand' Route 
TTITLE4=Marc Robine - Le Petit Qui Pleure 
TTITLE5=Gerrad Pierron - Le Patois De Chez Nous
TTITLE6=Gerrad Pierron - Les Mangeux D'terre 
TTITLE7=Gerrad Pierron - La Toinon 
TTITLE8=Marc Robine - Les Conscrits 
TTITLE9=Marc Robine - Le Fondeur De Canons 
TTITLE10=Gerrad Pierron - La Complainte Des Ramasseux D'morts 
TTITLE11=Gerrad Pierron - Grand Mere Gateau 
TTITLE12=Gerrad Pierron - Sur Un Air De Reproche 
TTITLE13=Marc Robine - Le Pauvre Gars 
TTITLE14=Marc Robine - La Complainte Des Terr'-neuvas 
TTITLE15=Marc Robine - Les Mangeux D'terre 
TTITLE16=Gerrad Pierron - La Derniere Bouteille 
EXTD=
EXTT0=
EXTT1=
EXTT2=
EXTT3=
EXTT4=
EXTT5=
EXTT6=
EXTT7=
EXTT8=
EXTT9=
EXTT10=
EXTT11=
EXTT12=
EXTT13=
EXTT14=
EXTT15=
EXTT16=
PLAYORDER=
